<mxfile host="app.diagrams.net" modified="2021-08-10T00:43:10.385Z" agent="5.0 (Windows NT 10.0; Win64; x64) AppleWebKit/537.36 (KHTML, like Gecko) Chrome/92.0.4515.131 Safari/537.36" etag="4hgyDK42JdqNAK82-NVb" version="14.9.5" type="github">
  <diagram id="VjgA5M952RXM_GBiwoY_" name="Page-1">
    <mxGraphModel dx="1209" dy="562" grid="1" gridSize="10" guides="1" tooltips="1" connect="1" arrows="1" fold="1" page="1" pageScale="1" pageWidth="850" pageHeight="1100" math="0" shadow="0">
      <root>
        <mxCell id="0" />
        <mxCell id="1" parent="0" />
        <mxCell id="cBkiBqW2b7ifWm52wZ6L-1" value="" style="rounded=1;whiteSpace=wrap;html=1;" vertex="1" parent="1">
          <mxGeometry x="110" y="70" width="590" height="400" as="geometry" />
        </mxCell>
        <mxCell id="cBkiBqW2b7ifWm52wZ6L-3" value="USER" style="text;html=1;strokeColor=none;fillColor=none;align=center;verticalAlign=middle;whiteSpace=wrap;rounded=0;" vertex="1" parent="1">
          <mxGeometry x="350" y="30" width="170" height="30" as="geometry" />
        </mxCell>
        <mxCell id="cBkiBqW2b7ifWm52wZ6L-4" value="" style="rounded=1;whiteSpace=wrap;html=1;" vertex="1" parent="1">
          <mxGeometry x="160" y="110" width="500" height="330" as="geometry" />
        </mxCell>
        <mxCell id="cBkiBqW2b7ifWm52wZ6L-5" value="APPLICATION PROGRAM" style="text;html=1;strokeColor=none;fillColor=none;align=center;verticalAlign=middle;whiteSpace=wrap;rounded=0;" vertex="1" parent="1">
          <mxGeometry x="320" y="80" width="195" height="20" as="geometry" />
        </mxCell>
        <mxCell id="cBkiBqW2b7ifWm52wZ6L-6" value="" style="rounded=1;whiteSpace=wrap;html=1;" vertex="1" parent="1">
          <mxGeometry x="190" y="145" width="440" height="260" as="geometry" />
        </mxCell>
        <mxCell id="cBkiBqW2b7ifWm52wZ6L-7" value="SHELL" style="text;html=1;strokeColor=none;fillColor=none;align=center;verticalAlign=middle;whiteSpace=wrap;rounded=0;" vertex="1" parent="1">
          <mxGeometry x="305" y="120" width="200" height="20" as="geometry" />
        </mxCell>
        <mxCell id="cBkiBqW2b7ifWm52wZ6L-8" value="" style="rounded=1;whiteSpace=wrap;html=1;" vertex="1" parent="1">
          <mxGeometry x="237.5" y="175" width="360" height="200" as="geometry" />
        </mxCell>
        <mxCell id="cBkiBqW2b7ifWm52wZ6L-9" value="KERNAL" style="text;html=1;strokeColor=none;fillColor=none;align=center;verticalAlign=middle;whiteSpace=wrap;rounded=0;" vertex="1" parent="1">
          <mxGeometry x="390" y="149" width="40" height="20" as="geometry" />
        </mxCell>
        <mxCell id="cBkiBqW2b7ifWm52wZ6L-10" value="HARDWARE" style="rounded=1;whiteSpace=wrap;html=1;" vertex="1" parent="1">
          <mxGeometry x="310" y="225" width="200" height="90" as="geometry" />
        </mxCell>
      </root>
    </mxGraphModel>
  </diagram>
</mxfile>
